<?xml version="1.0" encoding="UTF-8"?>
<svg version="1.1" xmlns="http://www.w3.org/2000/svg" width="444" height="75">
<path d="M0 0 C6.93 0 13.86 0 21 0 C25.29 11.22 29.58 22.44 34 34 C36.45617117 29.08765766 38.65352096 24.59599748 40.578125 19.53125 C41.01640625 18.38398438 41.4546875 17.23671875 41.90625 16.0546875 C42.57140625 14.29511719 42.57140625 14.29511719 43.25 12.5 C43.70890625 11.29601562 44.1678125 10.09203125 44.640625 8.8515625 C45.76409947 5.90244201 46.88255806 2.95141154 48 0 C54.93 0 61.86 0 69 0 C69 2.97 69 5.94 69 9 C66.69 9 64.38 9 62 9 C62 21.87 62 34.74 62 48 C64.31 48 66.62 48 69 48 C69 50.97 69 53.94 69 57 C61.74 57 54.48 57 47 57 C47 54.03 47 51.06 47 48 C48.98 48 50.96 48 53 48 C52.67 37.77 52.34 27.54 52 17 C46.72 30.2 41.44 43.4 36 57 C34.68 57 33.36 57 32 57 C26.72 43.47 21.44 29.94 16 16 C15.67 26.56 15.34 37.12 15 48 C16.98 48 18.96 48 21 48 C21 50.97 21 53.94 21 57 C14.07 57 7.14 57 0 57 C0 54.03 0 51.06 0 48 C2.31 48 4.62 48 7 48 C7 35.13 7 22.26 7 9 C4.69 9 2.38 9 0 9 C0 6.03 0 3.06 0 0 Z " fill="#FFFFFF" transform="translate(117,8)"/>
<path d="M0 0 C7.92 0 15.84 0 24 0 C24 2.97 24 5.94 24 9 C21.69 9 19.38 9 17 9 C17.33 13.95 17.66 18.9 18 24 C18.77085937 23.15695313 19.54171875 22.31390625 20.3359375 21.4453125 C21.34893432 20.33851968 22.36195647 19.23175006 23.375 18.125 C23.88289063 17.56941406 24.39078125 17.01382812 24.9140625 16.44140625 C26.9116026 14.25988219 28.90816093 12.09183907 31 10 C29.68 9.67 28.36 9.34 27 9 C27 6.03 27 3.06 27 0 C34.92 0 42.84 0 51 0 C51 2.97 51 5.94 51 9 C49.97519531 9.03351562 48.95039063 9.06703125 47.89453125 9.1015625 C42.81318514 10.27378878 40.95794184 12.49892078 37.6875 16.375 C36.90149414 17.26058594 36.90149414 17.26058594 36.09960938 18.1640625 C33.86579043 20.70392323 31.88152533 23.17771201 30 26 C30.50794141 31.14900406 34.54322058 34.84449182 37.6875 38.6875 C38.30044922 39.47189453 38.91339844 40.25628906 39.54492188 41.06445312 C43.2134475 45.65001588 43.2134475 45.65001588 48.45703125 48.01953125 C49.71580078 48.00986328 49.71580078 48.00986328 51 48 C51 50.97 51 53.94 51 57 C43.08 57 35.16 57 27 57 C27 54.03 27 51.06 27 48 C28.98 47.505 28.98 47.505 31 47 C30.31292969 46.18015625 29.62585938 45.3603125 28.91796875 44.515625 C28.00775965 43.42712752 27.09760635 42.33858339 26.1875 41.25 C25.73568359 40.71117187 25.28386719 40.17234375 24.81835938 39.6171875 C22.46046518 36.79459882 20.20845063 33.94460084 18 31 C17.67 36.61 17.34 42.22 17 48 C19.31 48 21.62 48 24 48 C24 50.97 24 53.94 24 57 C16.08 57 8.16 57 0 57 C0 54.03 0 51.06 0 48 C2.31 48 4.62 48 7 48 C7 35.13 7 22.26 7 9 C4.69 9 2.38 9 0 9 C0 6.03 0 3.06 0 0 Z " fill="#FFFFFF" transform="translate(373,8)"/>
<path d="M0 0 C9.9 0 19.8 0 30 0 C30 2.64 30 5.28 30 8 C28.02 8 26.04 8 24 8 C24.63615234 9.61841797 24.63615234 9.61841797 25.28515625 11.26953125 C28.56328748 19.63587997 31.79517288 28.01912663 34.9375 36.4375 C35.24373291 37.24743408 35.54996582 38.05736816 35.86547852 38.8918457 C36.14576904 39.64812256 36.42605957 40.40439941 36.71484375 41.18359375 C36.96355225 41.84931396 37.21226074 42.51503418 37.46850586 43.20092773 C38 45 38 45 38 48 C40.31 48 42.62 48 45 48 C45 50.97 45 53.94 45 57 C37.41 57 29.82 57 22 57 C22 54.03 22 51.06 22 48 C23.98 48 25.96 48 28 48 C27.01 44.7 26.02 41.4 25 38 C18.73 38.33 12.46 38.66 6 39 C5.01 41.97 4.02 44.94 3 48 C4.98 48 6.96 48 9 48 C9 50.97 9 53.94 9 57 C1.08 57 -6.84 57 -15 57 C-15 54.03 -15 51.06 -15 48 C-12.36 48 -9.72 48 -7 48 C-6.78601563 46.83597656 -6.57203125 45.67195313 -6.3515625 44.47265625 C-4.74350547 37.2363996 -1.9709016 30.36345057 0.625 23.4375 C1.14636926 22.03340201 1.66720694 20.62910651 2.1875 19.22460938 C3.4522133 15.81410757 4.72409774 12.40633417 6 9 C3.03 8.505 3.03 8.505 0 8 C0 5.36 0 2.72 0 0 Z M15 9 C13.99513105 11.95670218 12.99693976 14.91561577 12 17.875 C11.71382813 18.71675781 11.42765625 19.55851562 11.1328125 20.42578125 C10.86210937 21.23144531 10.59140625 22.03710938 10.3125 22.8671875 C9.93544922 23.98262939 9.93544922 23.98262939 9.55078125 25.12060547 C8.90625506 26.99347314 8.90625506 26.99347314 9 29 C13.29 29 17.58 29 22 29 C20.20532905 22.24861881 18.29690099 15.59748156 16 9 C15.67 9 15.34 9 15 9 Z " fill="#FFFFFF" transform="translate(282,8)"/>
<path d="M0 0 C9.9 0 19.8 0 30 0 C30 2.64 30 5.28 30 8 C28.02 8 26.04 8 24 8 C24.63615234 9.61841797 24.63615234 9.61841797 25.28515625 11.26953125 C28.56328748 19.63587997 31.79517288 28.01912663 34.9375 36.4375 C35.24373291 37.24743408 35.54996582 38.05736816 35.86547852 38.8918457 C36.14576904 39.64812256 36.42605957 40.40439941 36.71484375 41.18359375 C36.96355225 41.84931396 37.21226074 42.51503418 37.46850586 43.20092773 C38 45 38 45 38 48 C40.31 48 42.62 48 45 48 C45 50.97 45 53.94 45 57 C37.41 57 29.82 57 22 57 C22 54.03 22 51.06 22 48 C23.98 48 25.96 48 28 48 C27.01 44.7 26.02 41.4 25 38 C18.73 38.33 12.46 38.66 6 39 C5.01 41.97 4.02 44.94 3 48 C4.98 48 6.96 48 9 48 C9 50.97 9 53.94 9 57 C1.08 57 -6.84 57 -15 57 C-15 54.03 -15 51.06 -15 48 C-12.36 48 -9.72 48 -7 48 C-6.78601562 46.83597656 -6.57203125 45.67195313 -6.3515625 44.47265625 C-4.74350547 37.2363996 -1.9709016 30.36345057 0.625 23.4375 C1.14636926 22.03340201 1.66720694 20.62910651 2.1875 19.22460938 C3.4522133 15.81410757 4.72409774 12.40633417 6 9 C3.03 8.505 3.03 8.505 0 8 C0 5.36 0 2.72 0 0 Z M15 9 C13.99513105 11.95670218 12.99693976 14.91561577 12 17.875 C11.71382812 18.71675781 11.42765625 19.55851562 11.1328125 20.42578125 C10.86210937 21.23144531 10.59140625 22.03710938 10.3125 22.8671875 C9.93544922 23.98262939 9.93544922 23.98262939 9.55078125 25.12060547 C8.90625506 26.99347314 8.90625506 26.99347314 9 29 C13.29 29 17.58 29 22 29 C20.20532905 22.24861881 18.29690099 15.59748156 16 9 C15.67 9 15.34 9 15 9 Z " fill="#FFFFFF" transform="translate(21,8)"/>
<path d="M0 0 C0 -0.66 0 -1.32 0 -2 C2.97 -2 5.94 -2 9 -2 C9 3.94 9 9.88 9 16 C6.03 16 3.06 16 0 16 C-0.391875 14.88625 -0.78375 13.7725 -1.1875 12.625 C-2.34888342 9.93862247 -2.75151025 9.1544666 -5.3125 7.5625 C-9.4218339 6.70240686 -12.53774359 6.26887179 -16.375 8.1875 C-18.19603786 9.92217324 -18.19603786 9.92217324 -18.5625 12.5 C-18.25089717 15.15765127 -18.25089717 15.15765127 -15.96484375 16.50390625 C-11.76498353 18.62320331 -7.40663063 19.77811873 -2.8828125 21.01757812 C2.63755231 22.62681655 6.40655776 24.74720235 9.8125 29.5625 C11.6876711 34.99062686 12.05669789 40.57831161 10.34375 46.125 C8.02430721 50.76388558 4.72142152 53.23066892 0 55 C-6.27542128 56.71033526 -12.15326681 55.9233666 -18 53 C-18.33 53.66 -18.66 54.32 -19 55 C-21.97 55 -24.94 55 -28 55 C-28 47.74 -28 40.48 -28 33 C-25.03 33 -22.06 33 -19 33 C-18.938125 34.051875 -18.87625 35.10375 -18.8125 36.1875 C-17.83215217 40.78759369 -16.79174437 42.25703599 -13 45 C-9.40989319 46.08985385 -6.18366588 46.39455529 -2.5625 45.1875 C-0.84956695 44.06705694 -0.84956695 44.06705694 0 42 C0.04022391 39.6670134 0.04320247 37.33293334 0 35 C-5.00614443 32.33057213 -10.10851161 30.58526625 -15.52148438 28.98242188 C-20.51195802 27.4136972 -24.31227985 25.49333883 -27.29296875 21.08984375 C-29.02111528 15.98178634 -28.84620029 9.98857069 -26.75 5.0625 C-25.88375 4.0415625 -25.88375 4.0415625 -25 3 C-24.443125 2.278125 -23.88625 1.55625 -23.3125 0.8125 C-16.66202596 -4.40003371 -7.32772091 -3.66386045 0 0 Z " fill="#FFFFFF" transform="translate(358,10)"/>
<path d="M0 0 C4.49994472 -0.05845252 8.99979063 -0.09374855 13.5 -0.125 C14.7684375 -0.14175781 16.036875 -0.15851562 17.34375 -0.17578125 C33.37371602 -0.25927066 33.37371602 -0.25927066 39.375 4.3125 C43.47310952 8.50818356 44.29017362 12.15496647 44.3125 17.9375 C44.19167001 24.09227741 43.16936172 27.76865652 38.8125 32.25 C31.89484131 36.55432096 24.89604815 36.1974012 17 36 C17 39.96 17 43.92 17 48 C19.31 48 21.62 48 24 48 C24 50.97 24 53.94 24 57 C16.08 57 8.16 57 0 57 C0 54.03 0 51.06 0 48 C2.31 48 4.62 48 7 48 C7 35.13 7 22.26 7 9 C4.69 9 2.38 9 0 9 C0 6.03 0 3.06 0 0 Z M17 9 C17 14.94 17 20.88 17 27 C25.03009357 27.71586144 25.03009357 27.71586144 32.25 25 C34.50468758 21.13482128 35.03773245 18.36199405 34 14 C32.42251492 10.75399923 32.42251492 10.75399923 29 9 C24.90369758 8.58983708 21.13675889 8.77270556 17 9 Z " fill="#FFFFFF" transform="translate(68,8)"/>
<path d="M0 0 C15.18 0 30.36 0 46 0 C46 7.59 46 15.18 46 23 C43.03 23 40.06 23 37 23 C37 18.38 37 13.76 37 9 C34.03 9 31.06 9 28 9 C28 21.87 28 34.74 28 48 C30.31 48 32.62 48 35 48 C35 50.97 35 53.94 35 57 C27.08 57 19.16 57 11 57 C11 54.03 11 51.06 11 48 C13.31 48 15.62 48 18 48 C18 35.13 18 22.26 18 9 C15.03 9 12.06 9 9 9 C9 13.62 9 18.24 9 23 C6.03 23 3.06 23 0 23 C0 15.41 0 7.82 0 0 Z " fill="#FFFFFF" transform="translate(220,8)"/>
<path d="M0 0 C8.25 0 16.5 0 25 0 C25 2.97 25 5.94 25 9 C16.75 9 8.5 9 0 9 C0 6.03 0 3.06 0 0 Z " fill="#FFFFFF" transform="translate(191,40)"/>
</svg>
