<?xml version="1.0" encoding="UTF-8"?>
<svg version="1.1" xmlns="http://www.w3.org/2000/svg" width="263" height="97">
<path d="M0 0 C58.41 0 116.82 0 177 0 C177 11.55 177 23.1 177 35 C118.59 35 60.18 35 0 35 C0 23.45 0 11.9 0 0 Z " fill="#67BAEB" transform="translate(21,56)"/>
<path d="M0 0 C0.83416765 10.36751219 1.11195745 20.60039676 1 31 C1 34.68178701 1.54333053 38.34664421 2 42 C-5.26 42.33 -12.52 42.66 -20 43 C-20 42.34 -20 41.68 -20 41 C-19.34 41 -18.68 41 -18 41 C-18 40.34 -18 39.68 -18 39 C-15.03 38.01 -12.06 37.02 -9 36 C-9 35.01 -9 34.02 -9 33 C-11.97 33 -14.94 33 -18 33 C-18.33 33.99 -18.66 34.98 -19 36 C-21.43359375 37.7890625 -21.43359375 37.7890625 -24.4375 39.625 C-25.42621094 40.23601562 -26.41492188 40.84703125 -27.43359375 41.4765625 C-30.89728908 43.53263735 -32.62335293 44.11966639 -36.625 44.0625 C-37.85089844 44.04896484 -37.85089844 44.04896484 -39.1015625 44.03515625 C-39.72804687 44.02355469 -40.35453125 44.01195312 -41 44 C-42.71050559 39.02398374 -41.00885647 35.57383705 -39 31 C-39.66 31 -40.32 31 -41 31 C-43.29612756 13.14350797 -43.29612756 13.14350797 -43 5 C-39.87831806 4.21957952 -37.07088763 3.97405293 -33.875 4.0625 C-29.93658864 4.34859939 -29.93658864 4.34859939 -27 2 C-24.6599583 2.28241883 -22.32495277 2.61250787 -20 3 C-19.67 2.67 -19.34 2.34 -19 2 C-16.18622119 1.5980316 -13.38655883 1.24720588 -10.5625 0.9375 C-9.37817383 0.80118164 -9.37817383 0.80118164 -8.16992188 0.66210938 C-2.33041588 0 -2.33041588 0 0 0 Z M-19 4 C-18 6 -18 6 -18 6 Z M-32 5 C-31 7 -31 7 -31 7 Z M-33 7 C-33 9.97 -33 12.94 -33 16 C-32.67 16 -32.34 16 -32 16 C-32 13.03 -32 10.06 -32 7 C-32.33 7 -32.66 7 -33 7 Z M-17 7 C-17 9.64 -17 12.28 -17 15 C-16.67 15 -16.34 15 -16 15 C-16 12.36 -16 9.72 -16 7 C-16.33 7 -16.66 7 -17 7 Z M-12 15 C-8 16 -8 16 -8 16 Z M-37 18 C-37 18.33 -37 18.66 -37 19 C-35.35 19 -33.7 19 -32 19 C-32 18.67 -32 18.34 -32 18 C-33.65 18 -35.3 18 -37 18 Z M-17 19 C-16 21 -16 21 -16 21 Z M-29 20 C-28 22 -28 22 -28 22 Z " fill="#1F3E68" transform="translate(245,51)"/>
<path d="M0 0 C4.62 0 9.24 0 14 0 C14 5.28 14 10.56 14 16 C18.95 16.33 23.9 16.66 29 17 C29 11.39 29 5.78 29 0 C33.29 0 37.58 0 42 0 C42 15.18 42 30.36 42 46 C37.71 46 33.42 46 29 46 C29 40.06 29 34.12 29 28 C24.05 28.33 19.1 28.66 14 29 C14.01160156 30.14339844 14.02320313 31.28679688 14.03515625 32.46484375 C14.04453288 33.95572754 14.05363321 35.44661309 14.0625 36.9375 C14.07087891 37.69224609 14.07925781 38.44699219 14.08789062 39.22460938 C14.09652441 41.14994313 14.05224333 43.07535581 14 45 C13.505 45.495 13.505 45.495 13 46 C8.71 46 4.42 46 0 46 C0 30.82 0 15.64 0 0 Z " fill="#0C3349" transform="translate(6,2)"/>
<path d="M0 0 C3.61884168 1.89662185 5.68786858 4.06360575 7 8 C7.08266486 9.91906917 7.10740663 11.84089474 7.09765625 13.76171875 C7.09443359 14.87998047 7.09121094 15.99824219 7.08789062 17.15039062 C7.07532227 18.90125977 7.07532227 18.90125977 7.0625 20.6875 C7.05798828 21.86634766 7.05347656 23.04519531 7.04882812 24.25976562 C7.03703285 27.17319867 7.01909727 30.08660567 7 33 C3.04 33 -0.92 33 -5 33 C-5.495 21.615 -5.495 21.615 -6 10 C-8.64 10 -11.28 10 -14 10 C-14.94288183 14.9600338 -15.30248211 19.84514574 -15.5625 24.875 C-15.60568359 25.65875 -15.64886719 26.4425 -15.69335938 27.25 C-15.79853351 29.16650649 -15.89967925 31.08323333 -16 33 C-19.96 33 -23.92 33 -28 33 C-28 22.44 -28 11.88 -28 1 C-24.37 1 -20.74 1 -17 1 C-16.34 1.66 -15.68 2.32 -15 3 C-14.38125 2.505 -13.7625 2.01 -13.125 1.5 C-8.71524256 -0.61668357 -4.80893946 -0.8373393 0 0 Z M-17 4 C-16 6 -16 6 -16 6 Z " fill="#0A3248" transform="translate(123,15)"/>
<path d="M0 0 C5.56102701 5.15412259 8.35389595 8.10676884 8.76171875 15.84375 C8.33205438 21.30301488 5.96745464 25.04029309 2.0625 28.75 C-3.77520335 32.54450718 -8.47535999 33.44609846 -15.4375 32.375 C-20.12197258 30.34436166 -23.44468513 27.69875316 -26.5 23.625 C-28.14517769 17.92171733 -28.22669814 12.69875008 -26.3125 7.0625 C-20.18831137 -1.7155037 -9.85809829 -4.66019192 0 0 Z M-14.25 9.4375 C-16.13393714 12.51129218 -15.86930709 14.85885658 -15.4375 18.375 C-13.91472993 20.98220318 -13.91472993 20.98220318 -11.4375 22.375 C-8.82358611 22.61901278 -8.82358611 22.61901278 -6.4375 21.375 C-3.95960257 18.48411966 -3.41260795 17.00974729 -3.5625 13.1875 C-4.20755187 10.07351109 -4.20755187 10.07351109 -7.4375 8.375 C-10.23273674 8.02559541 -11.8023354 8.00266213 -14.25 9.4375 Z " fill="#0C3449" transform="translate(162.4375,16.625)"/>
<path d="M0 0 C4.66387179 2.61907726 7.95925735 5.96308742 9.59375 11.11328125 C10.45338985 16.77504718 9.89655861 21.31888165 6.59375 26.11328125 C1.98911437 30.75057387 -1.52125018 33.23982503 -8.21875 33.36328125 C-13.59149174 33.27750453 -17.15075134 32.3581658 -21.06640625 28.4609375 C-25.13013585 23.91686162 -26.80365718 20.62482737 -26.67578125 14.30078125 C-26.08974226 9.54452281 -24.17341085 5.86769815 -20.78125 2.5 C-14.68354233 -2.00976296 -7.07762618 -2.60815121 0 0 Z M-13.34375 10.61328125 C-14.98944051 14.48549421 -14.33123994 17.01689723 -13.40625 21.11328125 C-10.58056454 23.4336622 -10.58056454 23.4336622 -7.34375 22.92578125 C-4.10884047 22.37573627 -4.10884047 22.37573627 -2.40625 19.11328125 C-2.05511868 15.81264687 -2.10381926 13.75174614 -3.53125 10.73828125 C-5.3814031 8.8492829 -5.3814031 8.8492829 -8.40625 8.61328125 C-11.40825932 8.87011002 -11.40825932 8.87011002 -13.34375 10.61328125 Z " fill="#0C3449" transform="translate(80.40625,15.88671875)"/>
<path d="M0 0 C4.66387179 2.61907726 7.95925735 5.96308742 9.59375 11.11328125 C10.45338985 16.77504718 9.89655861 21.31888165 6.59375 26.11328125 C1.98911437 30.75057387 -1.52125018 33.23982503 -8.21875 33.36328125 C-13.59149174 33.27750453 -17.15075134 32.3581658 -21.06640625 28.4609375 C-25.13013585 23.91686162 -26.80365718 20.62482737 -26.67578125 14.30078125 C-26.08974226 9.54452281 -24.17341085 5.86769815 -20.78125 2.5 C-14.68354233 -2.00976296 -7.07762618 -2.60815121 0 0 Z M-13.28125 10.73828125 C-14.74111373 13.82021579 -14.89839954 15.73854156 -14.40625 19.11328125 C-12.92631844 21.67666814 -12.92631844 21.67666814 -10.40625 23.11328125 C-7.27262282 23.20220464 -7.27262282 23.20220464 -4.40625 22.11328125 C-2.08045899 18.62459474 -1.98759543 17.21609606 -2.40625 13.11328125 C-3.37728788 10.65141546 -3.37728788 10.65141546 -5.40625 9.11328125 C-8.87990978 8.53433795 -10.57147291 8.38980777 -13.28125 10.73828125 Z " fill="#0B3348" transform="translate(248.40625,15.88671875)"/>
<path d="M0 0 C0.125 7.625 0.125 7.625 -1 11 C-4.3 11.33 -7.6 11.66 -11 12 C-11.73286092 14.93144368 -12.16043754 17.16825067 -12.31640625 20.109375 C-12.35830078 20.86347656 -12.40019531 21.61757813 -12.44335938 22.39453125 C-12.50233398 23.56048828 -12.50233398 23.56048828 -12.5625 24.75 C-12.60568359 25.54277344 -12.64886719 26.33554687 -12.69335938 27.15234375 C-12.79902991 29.10137815 -12.89997966 31.05066748 -13 33 C-16.96 33 -20.92 33 -25 33 C-25 22.44 -25 11.88 -25 1 C-21.04 1 -17.08 1 -13 1 C-12.67 1.66 -12.34 2.32 -12 3 C-11.319375 2.505 -10.63875 2.01 -9.9375 1.5 C-6.40534991 -0.30365111 -3.91363009 -0.23021353 0 0 Z " fill="#0D344A" transform="translate(201,15)"/>
<path d="M0 0 C4.29 0 8.58 0 13 0 C13 10.56 13 21.12 13 32 C8.71 32 4.42 32 0 32 C0 21.44 0 10.88 0 0 Z " fill="#13394F" transform="translate(204,16)"/>
<path d="M0 0 C0.83360594 10.36053092 1.12288464 20.6094206 1 31 C0.34 31 -0.32 31 -1 31 C-1.515625 30.2575 -2.03125 29.515 -2.5625 28.75 C-5.84257727 25.04940001 -9.47562531 23.78180007 -14 22 C-14.66 21.67 -15.32 21.34 -16 21 C-16.25816542 18.75865478 -16.40646371 16.50422464 -16.5 14.25 C-16.69038871 9.69970994 -17.04205519 6.1369479 -19 2 C-16.20849551 1.66525856 -13.41681356 1.33214502 -10.625 1 C-9.43390625 0.85691406 -9.43390625 0.85691406 -8.21875 0.7109375 C-2.2265625 0 -2.2265625 0 0 0 Z M-12 15 C-8 16 -8 16 -8 16 Z " fill="#69B8E8" transform="translate(245,51)"/>
<path d="M0 0 C3.125 1.25 3.125 1.25 5 3 C5 4.32 5 5.64 5 7 C0.53160785 7.21278058 -2.82262526 6.59138085 -7 5 C-7 5.66 -7 6.32 -7 7 C-6.31292969 7.10957031 -5.62585937 7.21914062 -4.91796875 7.33203125 C-4.01691406 7.49058594 -3.11585937 7.64914063 -2.1875 7.8125 C-1.29417969 7.96332031 -0.40085937 8.11414063 0.51953125 8.26953125 C3.2187338 9.06441452 4.30920178 9.78219973 6 12 C6.4375 14.4375 6.4375 14.4375 6 17 C3.7522146 19.79035429 2.42269984 20.85910005 -1 22 C-5.91890767 22.36436353 -9.16107135 22.27438032 -13 19 C-13.8125 16.3125 -13.8125 16.3125 -14 14 C-11.125 13.875 -11.125 13.875 -8 14 C-7.34 14.66 -6.68 15.32 -6 16 C-4.68 16 -3.36 16 -2 16 C-1.67 15.34 -1.34 14.68 -1 14 C-2.03060547 13.83564453 -2.03060547 13.83564453 -3.08203125 13.66796875 C-3.98308594 13.50941406 -4.88414063 13.35085937 -5.8125 13.1875 C-6.70582031 13.03667969 -7.59914063 12.88585937 -8.51953125 12.73046875 C-11.2187338 11.93558548 -12.30920178 11.21780027 -14 9 C-14.56737985 5.83888371 -14.26868403 4.45187769 -12.625 1.6875 C-8.57093169 -0.91868677 -4.68530633 -0.62823978 0 0 Z " fill="#F4FAFC" transform="translate(56,63)"/>
<path d="M0 0 C1.98 0 3.96 0 6 0 C6 7.26 6 14.52 6 22 C3.66666667 22 1.33333333 22 -1 22 C-1.94875 22.2475 -2.8975 22.495 -3.875 22.75 C-7 23 -7 23 -9.375 21.6875 C-11.79050709 17.69262288 -11.84503593 13.56014885 -11 9 C-9.6640625 7.20703125 -9.6640625 7.20703125 -8 6 C-4.90498792 5.74734595 -2.79870027 5.60064987 0 7 C0 4.69 0 2.38 0 0 Z " fill="#F8FCFD" transform="translate(137,62)"/>
<path d="M0 0 C3.0625 1.5 3.0625 1.5 5 4 C5.64279782 6.80076193 5.63851332 9.1985947 5 12 C2.45132672 15.31327526 0.39692449 16.8095103 -3.75 17.375 C-8.27528174 16.85285211 -10.02043395 15.40521835 -13 12 C-14.01167377 8.12958142 -13.57732103 5.00403657 -11.5625 1.5 C-7.72663577 -0.74538394 -4.33262297 -0.74009218 0 0 Z " fill="#F6FAFC" transform="translate(159,68)"/>
<path d="M0 0 C0.97710937 -0.01417969 1.95421875 -0.02835937 2.9609375 -0.04296875 C5.625 0.1875 5.625 0.1875 8.625 2.1875 C8.91796875 4.5703125 8.91796875 4.5703125 8.8125 7.3125 C8.78542969 8.22257812 8.75835937 9.13265625 8.73046875 10.0703125 C8.69566406 10.76898438 8.66085938 11.46765625 8.625 12.1875 C9.285 12.1875 9.945 12.1875 10.625 12.1875 C10.625 13.5075 10.625 14.8275 10.625 16.1875 C7.83307795 16.24130578 5.0421859 16.28107669 2.25 16.3125 C1.4559375 16.32925781 0.661875 16.34601563 -0.15625 16.36328125 C-2.22992015 16.38085473 -4.30383241 16.29085168 -6.375 16.1875 C-8.375 14.1875 -8.375 14.1875 -8.75 11.75 C-8.375 9.1875 -8.375 9.1875 -6.8125 7.375 C-3.57071384 5.79566828 -0.93211122 5.98228204 2.625 6.1875 C2.625 5.5275 2.625 4.8675 2.625 4.1875 C-1.005 4.5175 -4.635 4.8475 -8.375 5.1875 C-5.72151592 -0.11946815 -5.65249502 0.03708986 0 0 Z " fill="#EFF7FB" transform="translate(113.375,67.8125)"/>
<path d="M0 0 C3.17424251 0.69116571 4.83750681 1.99375788 6.9375 4.421875 C6.9375 6.071875 6.9375 7.721875 6.9375 9.421875 C2.9775 9.421875 -0.9825 9.421875 -5.0625 9.421875 C-4.7325 10.411875 -4.4025 11.401875 -4.0625 12.421875 C1.3825 11.926875 1.3825 11.926875 6.9375 11.421875 C6.6075 12.741875 6.2775 14.061875 5.9375 15.421875 C2.2916929 17.50519334 -0.91930767 17.77448711 -5.0625 17.421875 C-8.40515205 16.21480621 -9.00954566 15.50130651 -11.0625 12.421875 C-11.62295628 8.09835512 -11.5411058 6.12482727 -9.0625 2.484375 C-5.70644317 0.17708593 -3.97465671 -0.27099932 0 0 Z " fill="#F0F8FB" transform="translate(75.0625,67.578125)"/>
<path d="M0 0 C1.65 0 3.3 0 5 0 C5 0.66 5 1.32 5 2 C5.99 1.34 6.98 0.68 8 0 C11.5625 -0.25 11.5625 -0.25 15 0 C17 2 17 2 17.1953125 5.2578125 C17.17210938 6.53398438 17.14890625 7.81015625 17.125 9.125 C17.10695313 10.40632813 17.08890625 11.68765625 17.0703125 13.0078125 C17.04710938 13.99523437 17.02390625 14.98265625 17 16 C15.02 16 13.04 16 11 16 C10.67 12.37 10.34 8.74 10 5 C9.01 5.33 8.02 5.66 7 6 C6.67 9.3 6.34 12.6 6 16 C4.02 16 2.04 16 0 16 C0 10.72 0 5.44 0 0 Z " fill="#F8FBFD" transform="translate(85,68)"/>
<path d="M0 0 C0 5.28 0 10.56 0 16 C-0.66 16 -1.32 16 -2 16 C-2.515625 15.2575 -3.03125 14.515 -3.5625 13.75 C-6.84257727 10.04940001 -10.47562531 8.78180007 -15 7 C-15.66 6.67 -16.32 6.34 -17 6 C-16.67 4.35 -16.34 2.7 -16 1 C-10.59280411 0.07962623 -5.48677955 -0.08441199 0 0 Z " fill="#FCCE12" transform="translate(246,66)"/>
<path d="M0 0 C2 2 2 2 2.3125 5.4375 C2 9 2 9 0.9375 10.9375 C-2.11976176 12.6140629 -4.5906288 12.36528977 -8 12 C-9.9375 10.9375 -9.9375 10.9375 -11 9 C-11.4375 5.5 -11.4375 5.5 -11 2 C-7.87890362 -1.99500336 -4.5824922 -1.10319257 0 0 Z " fill="#0F364A" transform="translate(215,1)"/>
<path d="M0 0 C-0.33 0.99 -0.66 1.98 -1 3 C-1.0685495 4.89470816 -1.08480372 6.7916834 -1.0625 8.6875 C-1.05347656 9.68136719 -1.04445312 10.67523438 -1.03515625 11.69921875 C-1.02355469 12.45847656 -1.01195312 13.21773437 -1 14 C-4.3 14.33 -7.6 14.66 -11 15 C-12.20568053 10.32798795 -12.09382426 5.78503708 -12 1 C-7.9472484 0.01751476 -4.16138263 -0.08159574 0 0 Z " fill="#6ABBE9" transform="translate(214,55)"/>
<path d="M0 0 C4.70588235 0.70588235 4.70588235 0.70588235 6 2 C6.04223152 6.16402828 5.65027333 9.86908986 3.5625 13.5 C-0.38833993 15.81268679 -4.49078976 15.82789274 -9 16 C-9 15.34 -9 14.68 -9 14 C-8.34 14 -7.68 14 -7 14 C-7 13.34 -7 12.68 -7 12 C-4.03 11.01 -1.06 10.02 2 9 C2 8.01 2 7.02 2 6 C-0.97 6 -3.94 6 -7 6 C-7.33 6.99 -7.66 7.98 -8 9 C-8.99 8.67 -9.98 8.34 -11 8 C-11.125 5.625 -11.125 5.625 -11 3 C-9 1 -9 1 -7.08984375 0.83984375 C-6.37957031 0.87207031 -5.66929687 0.90429688 -4.9375 0.9375 C-3.638125 0.958125 -2.33875 0.97875 -1 1 C-0.67 0.67 -0.34 0.34 0 0 Z " fill="#C12520" transform="translate(234,78)"/>
<path d="M0 0 C3.96 0 7.92 0 12 0 C12 1.65 12 3.3 12 5 C10.35 5.66 8.7 6.32 7 7 C6.67 9.97 6.34 12.94 6 16 C4.02 16 2.04 16 0 16 C0 10.72 0 5.44 0 0 Z " fill="#F6FAFC" transform="translate(167,68)"/>
<path d="M0 0 C0.474375 0.680625 0.94875 1.36125 1.4375 2.0625 C-1.38385308 5.19733676 -3.68492927 6.53187998 -7.5625 8.0625 C-8.5525 9.5475 -8.5525 9.5475 -9.5625 11.0625 C-10.2225 11.0625 -10.8825 11.0625 -11.5625 11.0625 C-11.75651633 9.25068595 -11.94254375 7.43801468 -12.125 5.625 C-12.22941406 4.61566406 -12.33382812 3.60632813 -12.44140625 2.56640625 C-12.48136719 1.74011719 -12.52132812 0.91382812 -12.5625 0.0625 C-10.60299188 -1.89700812 -7.44365016 -1.72903151 -4.796875 -2.015625 C-2.5625 -1.9375 -2.5625 -1.9375 0 0 Z " fill="#CC261D" transform="translate(215.5625,70.9375)"/>
<path d="M0 0 C1.67542976 0.28604898 3.34385343 0.61781233 5 1 C5 2.98 5 4.96 5 7 C3.34385343 7.38218767 1.67542976 7.71395102 0 8 C-1 7 -1 7 -1.125 4 C-1 1 -1 1 0 0 Z " fill="#6BBBE9" transform="translate(153,72)"/>
<path d="M0 0 C0.99 0.33 1.98 0.66 3 1 C3 4.63 3 8.26 3 12 C2.01 11.34 1.02 10.68 0 10 C-0.66 10.66 -1.32 11.32 -2 12 C-2.05395478 10.37536158 -2.09277195 8.75021459 -2.125 7.125 C-2.14820312 6.22007813 -2.17140625 5.31515625 -2.1953125 4.3828125 C-2 2 -2 2 0 0 Z " fill="#7AC2EC" transform="translate(93,72)"/>
<path d="M0 0 C2.0625 0.4375 2.0625 0.4375 4 1 C4 2.98 4 4.96 4 7 C2.35 7.33 0.7 7.66 -1 8 C-1.04241723 5.66705225 -1.04092937 3.33297433 -1 1 C-0.67 0.67 -0.34 0.34 0 0 Z " fill="#6FBCEA" transform="translate(133,72)"/>
<path d="M0 0 C3.96 0 7.92 0 12 0 C12 0.66 12 1.32 12 2 C7.58774263 3.47075246 4.51718381 4.36884358 0 3 C0 2.01 0 1.02 0 0 Z " fill="#87C7EA" transform="translate(70,77)"/>
<path d="M0 0 C-0.33 0.33 -0.66 0.66 -1 1 C-0.34 1.66 0.32 2.32 1 3 C-2.3 3.33 -5.6 3.66 -9 4 C-9 3.34 -9 2.68 -9 2 C-8.34 2 -7.68 2 -7 2 C-7 1.34 -7 0.68 -7 0 C-2.25 -1.125 -2.25 -1.125 0 0 Z " fill="#914447" transform="translate(234,90)"/>
<path d="M0 0 C0 0.99 0 1.98 0 3 C-2.97 2.505 -2.97 2.505 -6 2 C-6.66 4.64 -7.32 7.28 -8 10 C-8.33 10 -8.66 10 -9 10 C-9.25 6.6875 -9.25 6.6875 -9 3 C-6.29148704 -0.10977414 -4.00164289 -0.33347024 0 0 Z " fill="#223C4C" transform="translate(213,0)"/>
<path d="M0 0 C4.455 0.99 4.455 0.99 9 2 C8.67 2.99 8.34 3.98 8 5 C4.62537285 4.45276317 2.91765 3.9451 0 2 C0 1.34 0 0.68 0 0 Z " fill="#7BC2EB" transform="translate(46,75)"/>
<path d="M0 0 C1.98 0 3.96 0 6 0 C3 2 3 2 1 2 C1.33 3.32 1.66 4.64 2 6 C1.01 5.67 0.02 5.34 -1 5 C-0.67 3.35 -0.34 1.7 0 0 Z " fill="#FCD92C" transform="translate(230,67)"/>
</svg>
